# xmcd
#
# Track frame offsets: 
#        150
#        12226
#        24933
#        38845
#        55018
#        66798
#        78629
#        91279
#        106376
#        118366
#        127664
#
# Disc length: 1879 seconds
#
# Revision: 3
# Processed by: cddbd v1.5.2PL0 Copyright (c) Steve Scherf et al.
# Submitted via: ExactAudioCopyFreeDBPlugin 1.0
#
DISCID=8407550b
DTITLE=Billie Jo Spears - Lonely Hearts Club
DYEAR=1978
DGENRE=Country
TTITLE0=Lonely Hearts Club
TTITLE1=There's More To A Tear
TTITLE2=That's The Way It Is
TTITLE3=It's The Lovin' Kind
TTITLE4=Last Night, Ev'ry Night
TTITLE5=I've Got To Go
TTITLE6='57 Chevrolet
TTITLE7=Lover's Reunion
TTITLE8=A Little Something On The Side
TTITLE9=All The Love I Have (I Give To You)
TTITLE10=The Last Rose Of Summer
EXTD=
EXTT0=
EXTT1=
EXTT2=
EXTT3=
EXTT4=
EXTT5=
EXTT6=
EXTT7=
EXTT8=
EXTT9=
EXTT10=
PLAYORDER=
